<?xml version="1.0" standalone="no"?>
<!DOCTYPE svg PUBLIC "-//W3C//DTD SVG 20010904//EN"
 "http://www.w3.org/TR/2001/REC-SVG-20010904/DTD/svg10.dtd">
<svg version="1.0" xmlns="http://www.w3.org/2000/svg"
 width="1080.000000pt" height="1080.000000pt" viewBox="0 0 1080.000000 1080.000000"
 preserveAspectRatio="xMidYMid meet">

<g transform="translate(0.000000,1080.000000) scale(0.100000,-0.100000)"
fill="#000000" stroke="none">
<path d="M4246 8005 c-46 -16 -99 -65 -121 -111 -39 -82 -75 -342 -49 -351 7
-2 23 16 38 41 29 50 69 87 130 119 41 22 45 22 531 22 l490 0 0 -305 0 -305
-60 0 -60 0 -3 123 -3 122 -672 0 c-631 0 -674 -2 -713 -19 -82 -37 -148 -148
-161 -272 -6 -64 5 -77 32 -36 8 13 34 34 57 48 l43 24 583 3 582 3 0 -331 0
-330 -334 0 -334 0 -130 -117 c-72 -65 -131 -121 -131 -125 -1 -5 208 -8 464
-8 l465 0 0 -335 0 -335 -558 0 c-624 0 -633 1 -695 65 -19 19 -38 35 -42 35
-4 0 -5 -27 -2 -59 13 -124 75 -229 160 -270 43 -21 54 -21 715 -21 l672 0 0
155 0 155 66 0 65 0 -3 -240 -3 -239 -45 -46 c-25 -25 -78 -66 -118 -91 -40
-25 -70 -50 -67 -55 8 -12 752 -12 760 0 3 6 -30 33 -74 61 -85 54 -147 115
-156 152 -3 13 -4 120 -3 238 l3 215 60 0 60 0 3 -152 3 -153 124 0 125 0 2
424 3 425 380 -391 c443 -456 430 -446 609 -455 95 -5 108 -4 157 19 61 28
130 92 149 138 7 17 11 32 9 34 -2 2 -33 -2 -69 -10 -171 -36 -223 -14 -405
171 -359 366 -667 686 -664 688 3 3 1155 1003 1183 1029 6 4 -353 8 -797 8
l-806 0 -3 -122 -3 -123 -60 0 -60 0 0 305 0 305 490 3 c323 1 508 -1 542 -9
68 -13 138 -62 181 -125 19 -27 39 -49 45 -49 25 0 -6 229 -44 331 -23 62 -78
115 -138 132 -61 19 -2342 16 -2395 -3z m2374 -909 c-21 -19 -642 -558 -663
-575 -16 -13 -17 4 -17 288 l0 301 347 0 c296 0 345 -2 333 -14z m-1350 -746
l0 -590 -65 0 -65 0 0 590 0 590 65 0 65 0 0 -590z m418 3 l-3 -588 -62 -3
-63 -3 0 591 0 590 65 0 65 0 -2 -587z"/>
<path d="M1956 4688 c-3 -7 -48 -348 -101 -758 -72 -562 -100 -752 -113 -775
-25 -42 -76 -74 -133 -81 -110 -15 -35 -24 191 -24 153 0 240 4 240 10 0 6
-14 10 -31 10 -42 0 -89 50 -89 94 0 50 81 789 88 808 5 13 89 -121 301 -477
162 -273 300 -494 305 -492 6 2 14 25 18 50 3 26 18 72 33 104 27 61 477 845
481 840 2 -1 23 -191 48 -421 43 -389 45 -421 30 -451 -16 -34 -50 -55 -89
-55 -14 0 -25 -4 -25 -10 0 -6 123 -10 350 -10 323 0 422 8 301 24 -27 3 -63
16 -81 29 -72 48 -64 11 -174 836 -77 578 -104 761 -114 759 -7 -2 -165 -264
-350 -583 -186 -319 -342 -580 -346 -580 -4 0 -166 261 -361 580 -194 318
-358 581 -364 583 -6 2 -13 -2 -15 -10z"/>
<path d="M8400 4463 c-23 -70 -146 -345 -369 -823 -154 -329 -231 -485 -254
-508 -21 -22 -52 -39 -89 -50 -32 -9 -58 -20 -58 -24 0 -5 104 -8 230 -8 127
0 230 4 230 8 0 5 -18 14 -40 21 -41 12 -70 43 -70 74 0 10 23 72 51 138 l51
119 247 0 246 0 48 -115 c26 -63 47 -128 47 -143 0 -33 -32 -67 -72 -77 -76
-19 -1 -25 312 -25 315 0 399 7 303 25 -58 11 -111 42 -139 83 -15 20 -165
329 -335 687 -170 357 -313 651 -318 653 -5 2 -15 -14 -21 -35z m28 -710 c50
-120 94 -226 98 -235 6 -17 -8 -18 -195 -18 -111 0 -201 3 -201 8 -1 14 193
462 200 462 4 0 48 -98 98 -217z"/>
<path d="M4850 4454 c-48 -10 -180 -13 -512 -14 -391 0 -448 -2 -448 -15 0
-11 11 -15 39 -15 44 0 83 -26 100 -67 8 -21 11 -188 9 -616 l-3 -589 -33 -29
c-18 -17 -49 -31 -72 -35 -113 -18 8 -24 505 -24 300 0 545 2 545 5 0 2 18 93
41 200 43 211 46 262 10 180 -43 -100 -57 -121 -116 -181 -91 -93 -135 -106
-357 -112 l-178 -4 0 276 0 276 145 0 c109 0 155 -4 183 -15 66 -28 93 -65
107 -147 3 -21 10 -38 15 -38 6 0 10 96 10 245 0 149 -4 245 -10 245 -5 0 -12
-17 -16 -37 -10 -59 -49 -118 -91 -139 -31 -15 -67 -19 -190 -22 l-153 -4 0
281 0 281 195 0 c219 0 241 -5 292 -63 34 -39 53 -91 53 -144 0 -18 5 -33 10
-33 6 0 10 68 10 185 0 142 -3 185 -12 184 -7 -1 -42 -7 -78 -15z"/>
<path d="M5200 4430 c0 -5 12 -10 28 -10 35 0 86 -31 109 -67 17 -25 18 -65
18 -608 0 -553 -1 -581 -19 -608 -23 -34 -65 -57 -106 -57 -21 0 -30 -5 -30
-16 0 -15 42 -16 458 -11 486 5 530 9 670 56 111 38 183 83 263 162 127 126
186 300 176 518 -13 293 -157 497 -417 592 -149 54 -208 59 -701 59 -293 0
-449 -3 -449 -10z m925 -109 c44 -18 77 -42 126 -90 116 -117 161 -249 162
-476 1 -238 -48 -381 -168 -494 -100 -93 -139 -104 -367 -109 l-188 -4 0 602
0 602 188 -4 c168 -3 193 -6 247 -27z"/>
<path d="M6930 4431 c0 -4 19 -11 42 -14 47 -6 87 -32 105 -68 18 -35 18
-1163 0 -1199 -18 -35 -74 -70 -113 -70 -24 0 -34 -5 -34 -15 0 -13 41 -15
328 -13 211 2 326 7 325 13 -1 6 -19 12 -40 15 -43 6 -77 27 -101 62 -15 21
-17 81 -20 583 -2 365 0 572 7 595 15 51 60 90 110 97 22 3 41 10 41 14 0 5
-146 9 -325 9 -179 0 -325 -4 -325 -9z"/>
</g>
</svg>
